<svg xmlns="http://www.w3.org/2000/svg" xmlns:xlink="http://www.w3.org/1999/xlink" width="500" zoomAndPan="magnify" viewBox="0 0 375 374.999991" height="500" preserveAspectRatio="xMidYMid meet" version="1.0"><defs><g/><clipPath id="a6531fe74a"><path d="M 92 144 L 109 144 L 109 161 L 92 161 Z M 92 144 " clip-rule="nonzero"/></clipPath><clipPath id="b2e2dc3caf"><path d="M 107.402344 143.292969 L 109.484375 145.476562 L 93.558594 160.660156 L 91.476562 158.472656 Z M 107.402344 143.292969 " clip-rule="nonzero"/></clipPath><clipPath id="9b54604107"><path d="M 108.492188 145.726562 C 93.625 160.164062 93.144531 160.085938 92.808594 159.871094 C 92.609375 159.660156 92.558594 158.90625 92.769531 158.707031 C 93.046875 158.4375 93.945312 158.253906 94.144531 158.464844 C 94.414062 158.609375 94.527344 159.570312 94.316406 159.90625 C 94.105469 160.109375 93.214844 160.15625 92.875 159.941406 C 92.675781 159.730469 92.6875 159.183594 92.910156 158.574219 C 93.925781 156.132812 104.875 145.160156 107.15625 144.324219 C 107.707031 144.0625 108.253906 144.214844 108.453125 144.425781 C 108.652344 144.632812 108.492188 145.726562 108.492188 145.726562 " clip-rule="nonzero"/></clipPath><clipPath id="d631d33f5f"><path d="M 38 129 L 52 129 L 52 149 L 38 149 Z M 38 129 " clip-rule="nonzero"/></clipPath><clipPath id="f141fbd952"><path d="M 39.324219 129.160156 L 54.707031 145.296875 L 50.195312 149.597656 L 34.816406 133.460938 Z M 39.324219 129.160156 " clip-rule="nonzero"/></clipPath><clipPath id="bd85cdcf9c"><path d="M 40.164062 130.050781 C 50.464844 146.1875 51.730469 147.65625 51.4375 148.335938 C 51.292969 148.742188 49.917969 148.984375 49.714844 148.773438 C 49.582031 148.632812 49.886719 147.40625 50.164062 147.277344 C 50.441406 147.144531 51.449219 147.925781 51.441406 148.199219 C 51.4375 148.472656 50.460938 149.132812 49.78125 148.84375 C 47.742188 148.246094 41.976562 137.285156 40.136719 134.089844 C 39.214844 132.5625 38.351562 131.375 38.371094 130.554688 C 38.382812 130.144531 38.664062 129.738281 38.941406 129.609375 C 39.285156 129.550781 40.164062 130.050781 40.164062 130.050781 " clip-rule="nonzero"/></clipPath><clipPath id="510a493b10"><path d="M 72 124 L 80 124 L 80 149 L 72 149 Z M 72 124 " clip-rule="nonzero"/></clipPath><clipPath id="b8ac6f7ff4"><path d="M 78.25 124.347656 L 88.378906 134.972656 L 73.765625 148.898438 L 63.636719 138.273438 Z M 78.25 124.347656 " clip-rule="nonzero"/></clipPath><clipPath id="1a0668fcb4"><path d="M 79.167969 126.050781 C 74.386719 148.265625 73.898438 148.597656 73.558594 148.519531 C 73.289062 148.378906 72.761719 147.542969 72.902344 147.273438 C 72.980469 146.933594 73.8125 146.542969 74.152344 146.617188 C 74.421875 146.761719 74.8125 147.59375 74.671875 147.863281 C 74.59375 148.203125 73.96875 148.53125 73.695312 148.523438 C 73.355469 148.449219 72.953125 148.027344 72.832031 147.339844 C 72.339844 145.136719 74.917969 134.648438 75.90625 130.632812 C 76.371094 128.3125 76.636719 125.921875 77.40625 125.1875 C 77.828125 124.789062 78.378906 124.664062 78.648438 124.808594 C 78.917969 124.949219 79.167969 126.050781 79.167969 126.050781 " clip-rule="nonzero"/></clipPath><clipPath id="3d0e859c10"><path d="M 29 151 L 95 151 L 95 240 L 29 240 Z M 29 151 " clip-rule="nonzero"/></clipPath><clipPath id="68e94db67c"><path d="M 44.765625 142.765625 L 103.339844 163.023438 L 74.535156 246.308594 L 15.960938 226.046875 Z M 44.765625 142.765625 " clip-rule="nonzero"/></clipPath><clipPath id="a6fc87211c"><path d="M 44.765625 142.765625 L 103.339844 163.023438 L 74.535156 246.308594 L 15.960938 226.046875 Z M 44.765625 142.765625 " clip-rule="nonzero"/></clipPath></defs><g clip-path="url(#a6531fe74a)"><g clip-path="url(#b2e2dc3caf)"><g clip-path="url(#9b54604107)"><path fill="#1b2123" d="M 107.917969 138.246094 L 114.933594 145.605469 L 93.425781 166.105469 L 86.410156 158.746094 Z M 107.917969 138.246094 " fill-opacity="1" fill-rule="nonzero"/></g></g></g><g clip-path="url(#d631d33f5f)"><g clip-path="url(#f141fbd952)"><g clip-path="url(#bd85cdcf9c)"><path fill="#1b2123" d="M 39.496094 123.734375 L 60.136719 145.390625 L 50.183594 154.878906 L 29.539062 133.21875 Z M 39.496094 123.734375 " fill-opacity="1" fill-rule="nonzero"/></g></g></g><g clip-path="url(#510a493b10)"><g clip-path="url(#b8ac6f7ff4)"><g clip-path="url(#1a0668fcb4)"><path fill="#1b2123" d="M 78.378906 118.910156 L 93.8125 135.101562 L 73.699219 154.273438 L 58.265625 138.082031 Z M 78.378906 118.910156 " fill-opacity="1" fill-rule="nonzero"/></g></g></g><g fill="#1b2123" fill-opacity="1"><g transform="translate(124.473013, 212.55597)"><g><path d="M 35.476562 -21.015625 C 35.476562 -13.953125 31.691406 -8.996094 24.546875 -8.996094 C 17.402344 -8.996094 14.460938 -13.871094 14.460938 -21.015625 L 14.460938 -42.03125 L 4.371094 -42.03125 L 4.371094 -21.015625 C 4.371094 -9.078125 11.9375 0.421875 23.453125 0.421875 C 28.667969 0.421875 32.703125 -1.511719 35.476562 -4.792969 L 35.476562 -2.269531 C 35.476562 4.371094 32.535156 9.582031 23.371094 9.582031 C 18.832031 9.582031 13.785156 8.660156 10.929688 7.144531 L 10.929688 17.484375 C 14.542969 18.664062 19.335938 19.335938 23.875 19.335938 C 37.746094 19.335938 45.5625 9.75 45.5625 -2.1875 L 45.5625 -42.03125 L 35.476562 -42.03125 Z M 35.476562 -21.015625 "/></g></g></g><g fill="#1b2123" fill-opacity="1"><g transform="translate(168.683894, 212.55597)"><g><path d="M 35.390625 -21.015625 C 35.390625 -12.777344 31.105469 -8.996094 24.210938 -8.996094 C 15.886719 -8.996094 12.695312 -14.375 12.695312 -21.015625 C 12.695312 -27.65625 15.972656 -33.039062 24.210938 -33.039062 C 31.777344 -33.039062 35.054688 -28.414062 35.390625 -21.015625 Z M 48.84375 0 C 45.144531 -8.238281 45.648438 -16.730469 45.480469 -21.015625 C 44.976562 -34.132812 36.988281 -42.453125 24.210938 -42.453125 C 10.507812 -42.453125 2.605469 -32.871094 2.605469 -21.101562 C 2.605469 -9.078125 11.097656 0.421875 23.035156 0.421875 C 29.339844 0.421875 33.792969 -2.269531 36.652344 -6.472656 C 37.15625 -4.371094 37.828125 -2.1875 38.753906 0 Z M 48.84375 0 "/></g></g></g><g fill="#1b2123" fill-opacity="1"><g transform="translate(212.810726, 212.55597)"><g><path d="M 15.132812 -21.015625 C 15.132812 -29.253906 19.417969 -33.039062 26.3125 -33.039062 C 34.636719 -33.039062 37.828125 -27.65625 37.828125 -21.015625 C 37.828125 -14.375 34.636719 -8.996094 26.3125 -8.996094 C 19.417969 -8.996094 15.132812 -12.777344 15.132812 -21.015625 Z M 15.132812 -4.792969 C 17.988281 -1.597656 22.023438 0.421875 27.488281 0.421875 C 39.425781 0.421875 47.917969 -9.078125 47.917969 -21.101562 C 47.917969 -32.28125 40.605469 -42.453125 26.398438 -42.453125 C 12.609375 -42.453125 5.042969 -32.871094 5.042969 -21.015625 L 5.042969 16.8125 L 15.132812 16.8125 Z M 15.132812 -4.792969 "/></g></g></g><g fill="#1b2123" fill-opacity="1"><g transform="translate(256.853517, 212.55597)"><g><path d="M 15.132812 -21.015625 C 15.132812 -29.253906 19.417969 -33.039062 26.3125 -33.039062 C 34.636719 -33.039062 37.828125 -27.65625 37.828125 -21.015625 C 37.828125 -14.375 34.636719 -8.996094 26.3125 -8.996094 C 19.417969 -8.996094 15.132812 -12.777344 15.132812 -21.015625 Z M 15.132812 -4.792969 C 17.988281 -1.597656 22.023438 0.421875 27.488281 0.421875 C 39.425781 0.421875 47.917969 -9.078125 47.917969 -21.101562 C 47.917969 -32.28125 40.605469 -42.453125 26.398438 -42.453125 C 12.609375 -42.453125 5.042969 -32.871094 5.042969 -21.015625 L 5.042969 16.8125 L 15.132812 16.8125 Z M 15.132812 -4.792969 "/></g></g></g><g fill="#1b2123" fill-opacity="1"><g transform="translate(300.896293, 212.55597)"><g><path d="M 5.042969 -58.847656 L 5.042969 0 L 15.132812 0 L 15.132812 -58.847656 Z M 5.042969 -58.847656 "/></g></g></g><g fill="#1b2123" fill-opacity="1"><g transform="translate(314.679856, 212.55597)"><g><path d="M 13.617188 -26.398438 C 15.132812 -30.265625 18.496094 -32.703125 24.378906 -32.703125 C 28.835938 -32.703125 31.691406 -31.273438 31.691406 -28.582031 C 31.691406 -25.890625 28.835938 -24.464844 24.128906 -24.464844 C 20.765625 -24.464844 16.644531 -25.21875 13.617188 -26.398438 Z M 38.921875 -10.84375 C 35.726562 -9.835938 29.421875 -9.246094 25.808594 -9.246094 C 17.484375 -9.246094 14.039062 -12.441406 13.03125 -17.234375 C 16.308594 -15.636719 20.34375 -14.710938 24.042969 -14.710938 C 34.550781 -14.710938 41.863281 -20.34375 41.863281 -28.582031 C 41.863281 -36.820312 34.46875 -42.453125 24.042969 -42.453125 C 10.425781 -42.453125 2.605469 -32.871094 2.605469 -20.847656 C 2.605469 -9.164062 10.089844 0.503906 25.136719 0.503906 C 29.085938 0.503906 34.804688 -0.167969 38.921875 -1.34375 Z M 38.921875 -10.84375 "/></g></g></g><g clip-path="url(#3d0e859c10)"><g clip-path="url(#68e94db67c)"><g clip-path="url(#a6fc87211c)"><path fill="#1b2123" d="M 92.996094 192.042969 C 98.554688 175.980469 90.007812 158.398438 73.945312 152.839844 C 57.878906 147.285156 40.296875 155.828125 34.742188 171.894531 C 32.214844 179.199219 32.519531 187.113281 35.554688 194.113281 C 38.105469 201.078125 38.050781 205.859375 37.792969 209.195312 L 36.007812 208.578125 C 36.007812 208.578125 35.964844 208.5625 35.949219 208.558594 C 35.265625 208.273438 34.445312 208.566406 34.082031 209.238281 C 33.832031 209.683594 28.078125 220.347656 30.386719 227.277344 C 31.125 229.5 32.59375 231.128906 34.863281 232.152344 L 55.859375 239.414062 C 58.132812 239.960938 60.292969 239.589844 62.246094 238.296875 C 68.339844 234.273438 70.40625 222.332031 70.484375 221.832031 C 70.609375 221.105469 70.179688 220.398438 69.480469 220.15625 L 67.578125 219.496094 C 69.4375 216.714844 72.332031 212.933594 78.582031 209.0625 C 85.371094 205.390625 90.503906 199.34375 93.03125 192.039062 Z M 60.558594 235.777344 C 59.3125 236.59375 58 236.828125 56.6875 236.503906 L 35.964844 229.335938 C 34.609375 228.722656 33.714844 227.738281 33.242188 226.328125 C 32.730469 224.808594 32.761719 222.914062 33.078125 220.976562 L 63.980469 231.664062 C 63.027344 233.398438 61.886719 234.890625 60.542969 235.769531 Z M 65.28125 228.914062 L 33.753906 218.007812 C 34.4375 215.621094 35.390625 213.371094 36.132812 211.820312 L 67.234375 222.578125 C 66.859375 224.257812 66.222656 226.613281 65.28125 228.914062 Z M 54.316406 192.472656 L 52.457031 191.832031 C 51.425781 191.476562 50.886719 190.359375 51.242188 189.332031 C 51.597656 188.300781 52.714844 187.757812 53.742188 188.117188 C 54.769531 188.472656 55.3125 189.585938 54.957031 190.617188 Z M 55.101562 215.183594 L 50.242188 213.5 L 56.183594 196.320312 L 61.042969 198.003906 Z M 64.605469 218.46875 L 57.960938 216.171875 L 63.902344 198.992188 L 65.761719 199.632812 C 68.363281 200.535156 71.207031 199.148438 72.109375 196.546875 C 73.007812 193.945312 71.625 191.101562 69.023438 190.199219 C 66.421875 189.300781 63.574219 190.683594 62.675781 193.285156 L 62.03125 195.144531 L 57.171875 193.464844 L 57.816406 191.605469 C 58.714844 189.003906 57.332031 186.15625 54.730469 185.257812 C 52.128906 184.355469 49.28125 185.742188 48.382812 188.34375 C 47.484375 190.945312 48.867188 193.789062 51.46875 194.691406 L 53.324219 195.332031 L 47.382812 212.511719 L 40.738281 210.214844 C 41.066406 206.582031 41.371094 201.214844 38.359375 192.988281 C 35.59375 186.589844 35.324219 179.457031 37.605469 172.867188 C 42.613281 158.390625 58.46875 150.671875 72.960938 155.683594 C 87.453125 160.699219 95.15625 176.546875 90.144531 191.039062 C 87.863281 197.628906 83.246094 203.074219 77.042969 206.433594 C 69.667969 211.003906 66.59375 215.410156 64.613281 218.453125 Z M 64.890625 196.132812 L 65.535156 194.273438 C 65.890625 193.246094 67.003906 192.703125 68.035156 193.058594 C 69.0625 193.414062 69.605469 194.53125 69.25 195.558594 C 68.894531 196.589844 67.777344 197.132812 66.75 196.773438 Z M 67.292969 161.054688 C 67.183594 161.878906 66.421875 162.464844 65.597656 162.355469 C 57.925781 161.351562 50.386719 165.289062 46.84375 172.160156 C 46.496094 172.839844 45.703125 173.140625 45.003906 172.898438 C 44.929688 172.875 44.859375 172.851562 44.804688 172.828125 C 44.054688 172.445312 43.765625 171.527344 44.148438 170.792969 C 48.277344 162.78125 57.046875 158.199219 65.988281 159.371094 C 66.816406 159.480469 67.398438 160.242188 67.289062 161.070312 Z M 67.292969 161.054688 " fill-opacity="1" fill-rule="nonzero"/></g></g></g></svg>